<svg width="22" height="20" viewBox="0 0 22 20" fill="none" xmlns="http://www.w3.org/2000/svg">
<path d="M21.9 4.2C21.8 4.1 21.6 4 21.5 4H15C15 1.8 13.2 0 11 0C8.8 0 7 1.8 7 4V6.2C6.7 6.3 6.5 6.6 6.5 7C6.5 7.6 6.9 8 7.5 8C8.1 8 8.5 7.6 8.5 7C8.5 6.6 8.3 6.3 8 6.2V5H13V4H8C8 2.3 9.3 1 11 1C12.7 1 14 2.3 14 4V6.2C13.7 6.4 13.5 6.7 13.5 7C13.5 7.6 13.9 8 14.5 8C15.1 8 15.5 7.6 15.5 7C15.5 6.6 15.3 6.3 15 6.2V5H20.9L18.6 18.6C18.6 18.8 18.4 19 18.1 19H3.8C3.6 19 3.3 18.8 3.3 18.6L1.1 5H6V4H0.5C0.4 4 0.2 4.1 0.1 4.2C0 4.3 0 4.4 0 4.6L2.4 18.8C2.5 19.5 3.1 20 3.8 20H18.1C18.8 20 19.5 19.5 19.6 18.7L22 4.6C22 4.4 22 4.3 21.9 4.2Z" fill="black"/>
</svg>
