<svg width="20" height="20" viewBox="0 0 20 20" fill="none" xmlns="http://www.w3.org/2000/svg">
<g clip-path="url(#clip0_60_37)">
<path d="M10 4.8C7.2 4.8 4.9 7.1 4.9 9.9C4.9 12.7 7.2 15 10 15C12.8 15 15.1 12.7 15.1 9.9C15.1 7.1 12.8 4.8 10 4.8ZM10 13.2C8.2 13.2 6.7 11.7 6.7 9.9C6.7 8.1 8.2 6.6 10 6.6C11.8 6.6 13.3 8.1 13.3 9.9C13.3 11.7 11.8 13.2 10 13.2ZM15.2 3.4C14.6 3.4 14.1 3.9 14.1 4.5C14.1 5.1 14.6 5.8 15.2 5.8C15.8 5.8 16.5 5.3 16.5 4.7C16.5 4.4 16.4 4.1 16.1 3.8C15.8 3.5 15.6 3.4 15.2 3.4ZM19.9 9.9C19.9 8.5 19.9 7.2 19.8 5.8C19.7 4.3 19.4 2.8 18.2 1.6C17 0.5 15.6 0.1 13.9 0C12.7 0 11.3 0 10 0C8.6 0 7.2 0 5.8 0.1C4.3 0.1 2.9 0.5 1.7 1.6C0.5 2.7 0.2 4.1 0.1 5.8C0 7.2 0 8.6 0 9.9C0 11.2 0 12.7 0.1 14.1C0.2 15.6 0.5 17.1 1.7 18.3C2.8 19.4 4.2 19.8 5.9 19.9C7.3 20 8.6 20 10 20C11.4 20 12.7 20 14.1 19.9C15.6 19.8 17.1 19.5 18.3 18.3C19.4 17.2 19.8 15.8 19.9 14.1C19.9 12.7 19.9 11.3 19.9 9.9ZM17.6 15.7C17.5 16.2 17.2 16.5 16.8 16.8C16.4 17.2 16.2 17.3 15.7 17.6C14.4 18.1 11.3 18 9.9 18C8.5 18 5.3 18.1 4.1 17.6C3.6 17.5 3.3 17.2 3 16.8C2.6 16.4 2.5 16.2 2.2 15.7C1.7 14.4 1.8 11.3 1.8 9.9C1.8 8.5 1.7 5.3 2.2 4.1C2.3 3.6 2.6 3.3 3 3C3.4 2.7 3.6 2.5 4.1 2.2C5.4 1.7 8.5 1.8 9.9 1.8C11.3 1.8 14.5 1.7 15.7 2.2C16.2 2.3 16.5 2.6 16.8 3C17.2 3.4 17.3 3.6 17.6 4.1C18.1 5.3 18 8.5 18 9.9C18 11.3 18.2 14.4 17.6 15.7Z" fill="black"/>
</g>
<defs>
<clipPath id="clip0_60_37">
<rect width="20" height="20" fill="white"/>
</clipPath>
</defs>
</svg>
