<svg width="16" height="20" viewBox="0 0 16 20" fill="none" xmlns="http://www.w3.org/2000/svg">
<g clip-path="url(#clip0_60_41)">
<path d="M11.9 0C12 0 12.1 0 12.2 0.1C12.3 0.2 12.3 0.3 12.3 0.4C12.3 0.8 12.4 1.3 12.7 1.6C13.3 2.4 14.3 2.7 15.2 2.2C15.3 2.1 15.4 2.1 15.5 2.2C15.6 2.3 15.7 2.4 15.7 2.5V6.5C15.7 6.7 15.6 6.8 15.4 6.9C14.5 7 13.6 7 12.8 6.8V14C12.8 14 12.8 14.1 12.8 14.2C12.5 17.7 9.39999 20.3 5.89999 20C2.29999 19.7 -0.300014 16.6 -1.38637e-05 13C0.299986 9.8 2.89999 7.3 6.09999 7.2H6.19999C6.39999 7.2 6.59999 7.3 6.59999 7.5V12C6.59999 12.2 6.39999 12.4 6.29999 12.4C5.59999 12.5 5.09999 13 5.09999 13.7C5.09999 14.4 5.69999 15 6.39999 15C7.09999 15 7.59999 14.5 7.69999 13.8V0.4C7.59999 0.2 7.79999 0 7.99999 0H11.9Z" fill="black"/>
</g>
<defs>
<clipPath id="clip0_60_41">
<rect width="15.7" height="20" fill="white"/>
</clipPath>
</defs>
</svg>
