<svg width="29" height="21" viewBox="0 0 29 21" fill="none" xmlns="http://www.w3.org/2000/svg">
<path d="M28.485 3.29175C28.1798 1.995 27.1625 1.197 26.0434 0.89775C23.7036 0 14.5477 0 14.5477 0C14.5477 0 5.59526 0 3.35716 0.5985C2.03464 0.9975 1.01732 1.89525 0.712125 3.09225C0 5.3865 0 9.87525 0 9.87525C0 9.87525 0 14.5635 0.712125 16.6583C1.01732 17.955 2.03464 18.9525 3.35716 19.2518C5.59526 19.95 14.5477 19.95 14.5477 19.95C14.5477 19.95 23.6018 19.95 25.8399 19.2518C27.1625 18.9525 27.9763 17.955 28.2815 16.8577C28.9936 14.5635 28.9936 10.0748 28.9936 10.0748C28.9936 10.0748 29.0954 5.3865 28.485 3.29175ZM11.6992 14.2643V5.88525L19.1256 10.0748L11.6992 14.2643Z" fill="black"/>
</svg>
